<svg xmlns:mydata="http://www.w3.org/2000/svg" mydata:contrastcolor="002d2b" mydata:template="Contrast" mydata:presentation="2.5" mydata:layouttype="undefined" mydata:specialfontid="undefined" mydata:id1="004" mydata:id2="632" mydata:companyname="OOKUL" mydata:companytagline="" version="1.1" xmlns="http://www.w3.org/2000/svg" xmlns:xlink="http://www.w3.org/1999/xlink" viewBox="0 0 550 470"><defs><linearGradient x1="145.99991" y1="235" x2="404.00009" y2="235" gradientUnits="userSpaceOnUse" id="color-18517094094"><stop offset="0" stop-color="#00968f"></stop><stop offset="1" stop-color="#00fff4"></stop></linearGradient></defs><g fill="url(#color-18517094094)" fill-rule="none" stroke="none" stroke-width="1" stroke-linecap="butt" stroke-linejoin="miter" stroke-miterlimit="10" stroke-dasharray="" stroke-dashoffset="0" font-family="none" font-weight="none" font-size="none" text-anchor="none" style="mix-blend-mode: normal"><g data-paper-data="{&quot;isGlobalGroup&quot;:true,&quot;bounds&quot;:{&quot;x&quot;:145.9999098334015,&quot;y&quot;:105.99999999999999,&quot;width&quot;:258.000180333197,&quot;height&quot;:258}}"><g data-paper-data="{&quot;fillRule&quot;:&quot;evenodd&quot;,&quot;fillRuleOriginal&quot;:&quot;evenodd&quot;,&quot;isIcon&quot;:true,&quot;iconStyle&quot;:&quot;standalone&quot;,&quot;selectedEffects&quot;:{&quot;container&quot;:&quot;shield_simple_outline3&quot;,&quot;transformation&quot;:&quot;rotate0;translate50&quot;,&quot;pattern&quot;:&quot;particle-circle&quot;},&quot;bounds&quot;:{&quot;x&quot;:220.82019656402068,&quot;y&quot;:174.07307688275196,&quot;width&quot;:108.26684350883974,&quot;height&quot;:137.05322974658995},&quot;widthRatioIconToContainer&quot;:0.8092511370893313,&quot;heightRatioIconToContainer&quot;:0.6911123178756515,&quot;relativeBoundsIconToContainer&quot;:{&quot;top&quot;:-0.02194213395586261,&quot;left&quot;:0.00006373095663692391},&quot;iconType&quot;:&quot;initial&quot;,&quot;initialText&quot;:&quot;O&quot;,&quot;rawInitialId&quot;:470,&quot;blockLetter&quot;:&quot;V&quot;,&quot;monogramSpecial&quot;:&quot;particle-circle&quot;,&quot;suitableAsStandaloneIcon&quot;:true}" fill-rule="evenodd"><path d="M290.28763,258.82134c0,-1.09553 0.8881,-1.98365 1.98365,-1.98365c1.09553,0 1.98365,0.8881 1.98365,1.98365c0,1.09553 -0.8881,1.98365 -1.98365,1.98365c-1.09553,0 -1.98365,-0.8881 -1.98365,-1.98365zM290.4828,273.20333c0,-2.31456 1.87632,-4.19088 4.19088,-4.19088c2.31456,0 4.19088,1.87632 4.19088,4.19088c0,2.31456 -1.87632,4.19088 -4.19088,4.19088c-2.31456,0 -4.19088,-1.87632 -4.19088,-4.19088zM292.83702,263.86341c0,-2.2266 1.80502,-4.03162 4.03162,-4.03162c2.2266,0 4.03162,1.80502 4.03162,4.03162c0,2.2266 -1.80502,4.03162 -4.03162,4.03162c-2.2266,0 -4.03162,-1.80502 -4.03162,-4.03162zM300.4032,273.19473c0,-1.26699 1.0271,-2.29409 2.29409,-2.29409c1.26699,0 2.29409,1.0271 2.29409,2.29409c0,1.26699 -1.0271,2.29409 -2.29409,2.29409c-1.26699,0 -2.29409,-1.0271 -2.29409,-2.29409zM254.08956,267.41954c0,-1.07152 0.86863,-1.94015 1.94015,-1.94015c1.07152,0 1.94015,0.86863 1.94015,1.94015c0,1.07152 -0.86863,1.94015 -1.94015,1.94015c-1.07152,0 -1.94015,-0.86863 -1.94015,-1.94015zM255.01759,274.32903c0,-2.54907 2.06643,-4.6155 4.6155,-4.6155c2.54907,0 4.6155,2.06643 4.6155,4.6155c0,2.54907 -2.06643,4.6155 -4.6155,4.6155c-2.54907,0 -4.6155,-2.06643 -4.6155,-4.6155zM257.33469,262.72527c0,-1.0823 0.87737,-1.95966 1.95966,-1.95966c1.0823,0 1.95966,0.87737 1.95966,1.95966c0,1.0823 -0.87737,1.95966 -1.95966,1.95966c-1.0823,0 -1.95966,-0.87737 -1.95966,-1.95966zM261.02787,266.33007c0,-2.2266 1.80502,-4.03162 4.03162,-4.03162c2.2266,0 4.03162,1.80502 4.03162,4.03162c0,2.2266 -1.80502,4.03162 -4.03162,4.03162c-2.2266,0 -4.03162,-1.80502 -4.03162,-4.03162zM260.87544,281.89155c0,-1.78714 1.44876,-3.2359 3.2359,-3.2359c1.78714,0 3.2359,1.44876 3.2359,3.2359c0,1.78714 -1.44876,3.2359 -3.2359,3.2359c-1.78714,0 -3.2359,-1.44876 -3.2359,-3.2359zM265.67433,276.06735c0,-2.2266 1.80502,-4.03162 4.03162,-4.03162c2.2266,0 4.03162,1.80502 4.03162,4.03162c0,2.2266 -1.80502,4.03162 -4.03162,4.03162c-2.2266,0 -4.03162,-1.80502 -4.03162,-4.03162zM252.81684,279.50773c0,-0.9896 0.80223,-1.79183 1.79183,-1.79183c0.9896,0 1.79183,0.80223 1.79183,1.79183c0,0.9896 -0.80223,1.79183 -1.79183,1.79183c-0.9896,0 -1.79183,-0.80223 -1.79183,-1.79183zM237.83159,263.36924c0,-2.25984 1.83196,-4.0918 4.0918,-4.0918c2.25984,0 4.0918,1.83196 4.0918,4.0918c0,2.25984 -1.83196,4.0918 -4.0918,4.0918c-2.25984,0 -4.0918,-1.83196 -4.0918,-4.0918zM242.81706,270.10976c0,-1.53166 1.24165,-2.77331 2.77331,-2.77331c1.53166,0 2.77331,1.24165 2.77331,2.77331c0,1.53166 -1.24165,2.77331 -2.77331,2.77331c-1.53166,0 -2.77331,-1.24165 -2.77331,-2.77331zM246.83044,263.03073c0,-2.2266 1.80502,-4.03162 4.03162,-4.03162c2.2266,0 4.03162,1.80502 4.03162,4.03162c0,2.2266 -1.80502,4.03162 -4.03162,4.03162c-2.2266,0 -4.03162,-1.80502 -4.03162,-4.03162zM247.14087,274.80468c0,-1.58014 1.28095,-2.8611 2.8611,-2.8611c1.58014,0 2.8611,1.28095 2.8611,2.8611c0,1.58014 -1.28095,2.8611 -2.8611,2.8611c-1.58014,0 -2.8611,-1.28095 -2.8611,-2.8611zM272.01427,284.50591c0,-1.35096 1.09517,-2.44613 2.44613,-2.44613c1.35096,0 2.44613,1.09517 2.44613,2.44613c0,1.35096 -1.09517,2.44613 -2.44613,2.44613c-1.35096,0 -2.44613,-1.09517 -2.44613,-2.44613zM272.48901,266.9276c0,-1.61558 1.30969,-2.92526 2.92526,-2.92526c1.61558,0 2.92526,1.30969 2.92526,2.92526c0,1.61558 -1.30969,2.92526 -2.92526,2.92526c-1.61558,0 -2.92526,-1.30969 -2.92526,-2.92526zM274.82379,278.38092c0,-2.27839 1.847,-4.12538 4.12538,-4.12538c2.27839,0 4.12538,1.847 4.12538,4.12538c0,2.27839 -1.847,4.12538 -4.12538,4.12538c-2.27839,0 -4.12538,-1.847 -4.12538,-4.12538zM281.18352,283.76786c0,-0.9896 0.80223,-1.79183 1.79183,-1.79183c0.9896,0 1.79183,0.80223 1.79183,1.79183c0,0.9896 -0.80223,1.79183 -1.79183,1.79183c-0.9896,0 -1.79183,-0.80223 -1.79183,-1.79183zM279.97939,268.47228c0,-2.99088 2.42458,-5.41546 5.41546,-5.41546c2.99088,0 5.41546,2.42458 5.41546,5.41546c0,2.99088 -2.42458,5.41546 -5.41546,5.41546c-2.99088,0 -5.41546,-2.42458 -5.41546,-5.41546zM284.41393,279.74338c0,-2.2266 1.80502,-4.03162 4.03162,-4.03162c2.2266,0 4.03162,1.80502 4.03162,4.03162c0,2.2266 -1.80502,4.03162 -4.03162,4.03162c-2.2266,0 -4.03162,-1.80502 -4.03162,-4.03162zM310.65214,246.87559c0,-1.02245 0.82886,-1.85131 1.85131,-1.85131c1.02245,0 1.85131,0.82886 1.85131,1.85131c0,1.02245 -0.82886,1.85131 -1.85131,1.85131c-1.02245,0 -1.85131,-0.82886 -1.85131,-1.85131zM299.98415,251.12756c0,-2.36773 1.91942,-4.28716 4.28716,-4.28716c2.36773,0 4.28716,1.91942 4.28716,4.28716c0,2.36773 -1.91942,4.28716 -4.28716,4.28716c-2.36773,0 -4.28716,-1.91942 -4.28716,-4.28716zM308.77154,254.37073c0,-2.2266 1.80502,-4.03162 4.03162,-4.03162c2.2266,0 4.03162,1.80502 4.03162,4.03162c0,2.2266 -1.80502,4.03162 -4.03162,4.03162c-2.2266,0 -4.03162,-1.80502 -4.03162,-4.03162zM293.4058,254.26807c0,-1.76394 1.42996,-3.1939 3.1939,-3.1939c1.76394,0 3.1939,1.42996 3.1939,3.1939c0,1.76394 -1.42996,3.1939 -3.1939,3.1939c-1.76394,0 -3.1939,-1.42996 -3.1939,-3.1939zM301.58734,259.22868c0,-1.14665 0.92954,-2.07619 2.07619,-2.07619c1.14665,0 2.07619,0.92954 2.07619,2.07619c0,1.14665 -0.92954,2.07619 -2.07619,2.07619c-1.14665,0 -2.07619,-0.92954 -2.07619,-2.07619zM302.94939,265.29699c0,-2.2266 1.80502,-4.03162 4.03162,-4.03162c2.2266,0 4.03162,1.80502 4.03162,4.03162c0,2.2266 -1.80502,4.03162 -4.03162,4.03162c-2.2266,0 -4.03162,-1.80502 -4.03162,-4.03162zM295.48478,247.04616c0,-1.16264 0.94251,-2.10515 2.10515,-2.10515c1.16264,0 2.10515,0.94251 2.10515,2.10515c0,1.16264 -0.94251,2.10515 -2.10515,2.10515c-1.16264,0 -2.10515,-0.94251 -2.10515,-2.10515zM242.96904,238.35629c0,-2.25386 1.82711,-4.08097 4.08097,-4.08097c2.25386,0 4.08097,1.82711 4.08097,4.08097c0,2.25386 -1.82711,4.08097 -4.08097,4.08097c-2.25386,0 -4.08097,-1.82711 -4.08097,-4.08097zM232.5833,239.22861c0,-2.59879 2.10674,-4.70553 4.70553,-4.70553c2.59879,0 4.70553,2.10674 4.70553,4.70553c0,2.59879 -2.10674,4.70553 -4.70553,4.70553c-2.59879,0 -4.70553,-2.10674 -4.70553,-4.70553zM249.48435,244.65995c0,-1.02118 0.82783,-1.84901 1.84901,-1.84901c1.02118,0 1.84901,0.82783 1.84901,1.84901c0,1.02118 -0.82783,1.84901 -1.84901,1.84901c-1.02118,0 -1.84901,-0.82783 -1.84901,-1.84901zM234.71185,250.35126c0,-2.23807 1.81431,-4.05238 4.05238,-4.05238c2.23807,0 4.05238,1.81431 4.05238,4.05238c0,2.23807 -1.81431,4.05238 -4.05238,4.05238c-2.23807,0 -4.05238,-1.81431 -4.05238,-4.05238zM245.20228,251.01224c0,-2.22726 1.80555,-4.03281 4.03281,-4.03281c2.22726,0 4.03281,1.80555 4.03281,4.03281c0,2.22726 -1.80555,4.03281 -4.03281,4.03281c-2.22726,0 -4.03281,-1.80555 -4.03281,-4.03281zM243.97588,257.89203c0,-0.9896 0.80223,-1.79183 1.79183,-1.79183c0.9896,0 1.79183,0.80223 1.79183,1.79183c0,0.9896 -0.80223,1.79183 -1.79183,1.79183c-0.9896,0 -1.79183,-0.80223 -1.79183,-1.79183zM240.39633,244.64783c0,-0.9896 0.80223,-1.79183 1.79183,-1.79183c0.9896,0 1.79183,0.80223 1.79183,1.79183c0,0.9896 -0.80223,1.79183 -1.79183,1.79183c-0.9896,0 -1.79183,-0.80223 -1.79183,-1.79183zM236.0643,257.03394c0,-1.03453 0.83865,-1.87318 1.87318,-1.87318c1.03453,0 1.87318,0.83865 1.87318,1.87318c0,1.03453 -0.83865,1.87318 -1.87318,1.87318c-1.03453,0 -1.87318,-0.83865 -1.87318,-1.87318zM231.15299,247.00481c0,-1.00757 0.8168,-1.82437 1.82437,-1.82437c1.00757,0 1.82437,0.8168 1.82437,1.82437c0,1.00757 -0.8168,1.82437 -1.82437,1.82437c-1.00757,0 -1.82437,-0.8168 -1.82437,-1.82437zM314.01297,233.08084c0,-1.24806 1.01175,-2.25982 2.25982,-2.25982c1.24806,0 2.25982,1.01175 2.25982,2.25982c0,1.24806 -1.01175,2.25982 -2.25982,2.25982c-1.24806,0 -2.25982,-1.01175 -2.25982,-2.25982zM302.40741,236.66157c0,-2.31342 1.8754,-4.18883 4.18883,-4.18883c2.31342,0 4.18883,1.8754 4.18883,4.18883c0,2.31342 -1.8754,4.18883 -4.18883,4.18883c-2.31342,0 -4.18883,-1.8754 -4.18883,-4.18883zM310.70482,240.56821c0,-2.2266 1.80502,-4.03162 4.03162,-4.03162c2.2266,0 4.03162,1.80502 4.03162,4.03162c0,2.2266 -1.80502,4.03162 -4.03162,4.03162c-2.2266,0 -4.03162,-1.80502 -4.03162,-4.03162zM299.32936,243.19251c0,-1.58715 1.28664,-2.87379 2.87379,-2.87379c1.58715,0 2.87379,1.28664 2.87379,2.87379c0,1.58715 -1.28664,2.87379 -2.87379,2.87379c-1.58715,0 -2.87379,-1.28664 -2.87379,-2.87379zM297.80118,234.32389c0,-1.15822 0.93892,-2.09715 2.09715,-2.09715c1.15822,0 2.09715,0.93892 2.09715,2.09715c0,1.15822 -0.93892,2.09715 -2.09715,2.09715c-1.15822,0 -2.09715,-0.93892 -2.09715,-2.09715zM237.23881,217.65539c0,-1.55927 1.26404,-2.8233 2.8233,-2.8233c1.55927,0 2.8233,1.26404 2.8233,2.8233c0,1.55927 -1.26404,2.8233 -2.8233,2.8233c-1.55927,0 -2.8233,-1.26404 -2.8233,-2.8233zM243.38174,219.81968c0,-2.2266 1.80502,-4.03162 4.03162,-4.03162c2.2266,0 4.03162,1.80502 4.03162,4.03162c0,2.2266 -1.80502,4.03162 -4.03162,4.03162c-2.2266,0 -4.03162,-1.80502 -4.03162,-4.03162zM248.9283,227.22768c0,-1.63718 1.3272,-2.96437 2.96437,-2.96437c1.63718,0 2.96437,1.3272 2.96437,2.96437c0,1.63718 -1.3272,2.96437 -2.96437,2.96437c-1.63718,0 -2.96437,-1.3272 -2.96437,-2.96437zM235.95621,229.9695c0,-2.30282 1.86681,-4.16963 4.16963,-4.16963c2.30282,0 4.16963,1.86681 4.16963,4.16963c0,2.30282 -1.86681,4.16963 -4.16963,4.16963c-2.30282,0 -4.16963,-1.86681 -4.16963,-4.16963zM248.64589,232.59805c0,-0.9896 0.80223,-1.79183 1.79183,-1.79183c0.9896,0 1.79183,0.80223 1.79183,1.79183c0,0.9896 -0.80223,1.79183 -1.79183,1.79183c-0.9896,0 -1.79183,-0.80223 -1.79183,-1.79183zM231.27765,229.11325c0,-1.08343 0.8783,-1.96173 1.96173,-1.96173c1.08343,0 1.96173,0.8783 1.96173,1.96173c0,1.08343 -0.8783,1.96173 -1.96173,1.96173c-1.08343,0 -1.96173,-0.8783 -1.96173,-1.96173zM292.56022,209.10213c0,-2.42864 1.9688,-4.39745 4.39745,-4.39745c2.42864,0 4.39745,1.9688 4.39745,4.39745c0,2.42864 -1.9688,4.39745 -4.39745,4.39745c-2.42864,0 -4.39745,-1.9688 -4.39745,-4.39745zM302.06863,216.52359c0,-2.8369 2.29976,-5.13666 5.13666,-5.13666c2.8369,0 5.13666,2.29976 5.13666,5.13666c0,2.8369 -2.29976,5.13666 -5.13666,5.13666c-2.8369,0 -5.13666,-2.29976 -5.13666,-5.13666zM308.16971,227.26471c0,-2.2266 1.80502,-4.03162 4.03162,-4.03162c2.2266,0 4.03162,1.80502 4.03162,4.03162c0,2.2266 -1.80502,4.03162 -4.03162,4.03162c-2.2266,0 -4.03162,-1.80502 -4.03162,-4.03162zM297.07058,227.38481c0,-2.29785 1.86278,-4.16063 4.16063,-4.16063c2.29785,0 4.16063,1.86278 4.16063,4.16063c0,2.29785 -1.86278,4.16063 -4.16063,4.16063c-2.29785,0 -4.16063,-1.86278 -4.16063,-4.16063zM296.18202,218.77013c0,-1.4844 1.20335,-2.68774 2.68774,-2.68774c1.4844,0 2.68774,1.20335 2.68774,2.68774c0,1.4844 -1.20335,2.68774 -2.68774,2.68774c-1.4844,0 -2.68774,-1.20335 -2.68774,-2.68774zM302.02424,207.71425c0,-0.9896 0.80223,-1.79183 1.79183,-1.79183c0.9896,0 1.79183,0.80223 1.79183,1.79183c0,0.9896 -0.80223,1.79183 -1.79183,1.79183c-0.9896,0 -1.79183,-0.80223 -1.79183,-1.79183zM294.63862,201.63668c0,-1.24815 1.01183,-2.25998 2.25998,-2.25998c1.24815,0 2.25998,1.01183 2.25998,2.25998c0,1.24815 -1.01183,2.25998 -2.25998,2.25998c-1.24815,0 -2.25998,-1.01183 -2.25998,-2.25998zM293.64747,223.41268c0,-1.06921 0.86677,-1.93597 1.93597,-1.93597c1.06921,0 1.93597,0.86677 1.93597,1.93597c0,1.06921 -0.86677,1.93597 -1.93597,1.93597c-1.06921,0 -1.93597,-0.86677 -1.93597,-1.93597zM290.0608,217.16373c0,-1.52514 1.23636,-2.7615 2.7615,-2.7615c1.52514,0 2.7615,1.23636 2.7615,2.7615c0,1.52514 -1.23636,2.7615 -2.7615,2.7615c-1.52514,0 -2.7615,-1.23636 -2.7615,-2.7615zM243.3415,210.86698c0,-2.27128 1.84124,-4.11252 4.11252,-4.11252c2.27128,0 4.11252,1.84124 4.11252,4.11252c0,2.27128 -1.84124,4.11252 -4.11252,4.11252c-2.27128,0 -4.11252,-1.84124 -4.11252,-4.11252zM252.33969,215.63532c0,-2.285 1.85236,-4.13736 4.13736,-4.13736c2.285,0 4.13736,1.85236 4.13736,4.13736c0,2.285 -1.85236,4.13736 -4.13736,4.13736c-2.285,0 -4.13736,-1.85236 -4.13736,-4.13736zM252.18605,201.61614c0,-2.44983 1.98598,-4.4358 4.4358,-4.4358c2.44983,0 4.4358,1.98598 4.4358,4.4358c0,2.44983 -1.98598,4.4358 -4.4358,4.4358c-2.44983,0 -4.4358,-1.98598 -4.4358,-4.4358zM259.47194,208.88866c0,-2.38533 1.93369,-4.31903 4.31903,-4.31903c2.38533,0 4.31903,1.93369 4.31903,4.31903c0,2.38533 -1.93369,4.31903 -4.31903,4.31903c-2.38533,0 -4.31903,-1.93369 -4.31903,-4.31903zM262.46258,215.79209c0,-0.9896 0.80223,-1.79183 1.79183,-1.79183c0.9896,0 1.79183,0.80223 1.79183,1.79183c0,0.9896 -0.80223,1.79183 -1.79183,1.79183c-0.9896,0 -1.79183,-0.80223 -1.79183,-1.79183zM261.06979,198.28837c0,-1.16501 0.94443,-2.10944 2.10944,-2.10944c1.16501,0 2.10944,0.94443 2.10944,2.10944c0,1.16501 -0.94443,2.10944 -2.10944,2.10944c-1.16501,0 -2.10944,-0.94443 -2.10944,-2.10944zM255.08161,222.3609c0,-0.9896 0.80223,-1.79183 1.79183,-1.79183c0.9896,0 1.79183,0.80223 1.79183,1.79183c0,0.9896 -0.80223,1.79183 -1.79183,1.79183c-0.9896,0 -1.79183,-0.80223 -1.79183,-1.79183zM248.25475,204.11975c0,-0.9896 0.80223,-1.79183 1.79183,-1.79183c0.9896,0 1.79183,0.80223 1.79183,1.79183c0,0.9896 -0.80223,1.79183 -1.79183,1.79183c-0.9896,0 -1.79183,-0.80223 -1.79183,-1.79183zM266.08266,198.74987c0,-2.51375 2.0378,-4.55156 4.55156,-4.55156c2.51375,0 4.55156,2.0378 4.55156,4.55156c0,2.51375 -2.0378,4.55156 -4.55156,4.55156c-2.51375,0 -4.55156,-2.0378 -4.55156,-4.55156zM268.88307,209.69603c0,-2.23293 1.81015,-4.04308 4.04308,-4.04308c2.23293,0 4.04308,1.81015 4.04308,4.04308c0,2.23293 -1.81015,4.04308 -4.04308,4.04308c-2.23293,0 -4.04308,-1.81015 -4.04308,-4.04308zM276.12638,204.53076c0,-2.23763 1.81395,-4.05159 4.05159,-4.05159c2.23763,0 4.05159,1.81395 4.05159,4.05159c0,2.23763 -1.81395,4.05159 -4.05159,4.05159c-2.23763,0 -4.05159,-1.81395 -4.05159,-4.05159zM283.19494,211.58937c0,-2.32293 1.88311,-4.20604 4.20604,-4.20604c2.32293,0 4.20604,1.88311 4.20604,4.20604c0,2.32293 -1.88311,4.20604 -4.20604,4.20604c-2.32293,0 -4.20604,-1.88311 -4.20604,-4.20604zM283.5898,199.58984c0,-2.36992 1.9212,-4.29112 4.29112,-4.29112c2.36992,0 4.29112,1.9212 4.29112,4.29112c0,2.36992 -1.9212,4.29112 -4.29112,4.29112c-2.36992,0 -4.29112,-1.9212 -4.29112,-4.29112zM278.02813,213.43774c0,-1.26917 1.02886,-2.29803 2.29803,-2.29803c1.26917,0 2.29803,1.02886 2.29803,2.29803c0,1.26917 -1.02886,2.29803 -2.29803,2.29803c-1.26917,0 -2.29803,-1.02886 -2.29803,-2.29803zM278.01587,197.52925c0,-1.18289 0.95893,-2.14182 2.14182,-2.14182c1.18289,0 2.14182,0.95893 2.14182,2.14182c0,1.18289 -0.95893,2.14182 -2.14182,2.14182c-1.18289,0 -2.14182,-0.95893 -2.14182,-2.14182zM274.82015,194.09559c0,-1.02876 0.83397,-1.86272 1.86272,-1.86272c1.02876,0 1.86272,0.83397 1.86272,1.86272c0,1.02876 -0.83397,1.86272 -1.86272,1.86272c-1.02876,0 -1.86272,-0.83397 -1.86272,-1.86272zM247.34091,296.26197c-3.50576,-3.00516 -6.46984,-5.95131 -8.89222,-8.83846c-4.43366,-5.28438 -8.22166,-11.468 -11.364,-18.55086c-3.14851,-7.0966 -5.11439,-13.89283 -5.89765,-20.3887c-0.23285,-1.93109 -0.35492,-12.98629 -0.36619,-33.16559c-0.01134,-20.32169 0.12651,-30.983 0.41357,-31.98393c0.58688,-2.04631 1.88759,-3.59348 3.90214,-4.64153c1.35427,-0.70454 7.66541,-1.70886 18.93341,-3.01296c6.10123,-0.70615 10.95784,-1.15165 14.56983,-1.33652c3.60087,-0.18428 9.19652,-0.27436 16.78696,-0.27022c7.86507,0.00428 13.81463,0.12671 17.8487,0.36727c4.03974,0.2409 9.59024,0.80458 16.6515,1.69103c7.1075,0.89226 11.4775,1.54183 13.10996,1.94873c2.18565,0.54473 3.81791,1.61758 4.89677,3.21853l0.70314,1.04355c0.07307,0.10821 0.13764,0.22122 0.1937,0.33901c0.05606,0.11779 0.10317,0.23908 0.14135,0.36387c0.03817,0.12479 0.06685,0.25171 0.08605,0.38075c0.01941,0.12907 0.02912,0.25885 0.02912,0.38933v32.19739c0,21.62309 -0.12618,33.1297 -0.37856,34.51984c-1.45666,8.02408 -4.01477,15.59118 -7.67431,22.7013c-3.66608,7.12211 -8.25682,13.43498 -13.7722,18.93858c-7.62818,7.61181 -16.50874,13.45112 -26.64168,17.51791c-2.24869,0.90262 -4.0272,1.37956 -5.33554,1.43082c-1.37443,0.05388 -3.05446,-0.31105 -5.04008,-1.09479c-4.38373,-1.73019 -8.6753,-3.85869 -12.87471,-6.38549c-3.17835,-1.91255 -6.52137,-4.37217 -10.02905,-7.37886zM278.65681,304.79843c9.46744,-3.7998 17.76145,-9.25225 24.88204,-16.35736c5.12515,-5.11424 9.39458,-10.98758 12.8083,-17.61999c3.42004,-6.64442 5.8116,-13.72117 7.17469,-21.23024c0.19588,-1.07886 0.29382,-12.27159 0.29382,-33.57818v-31.3922l-0.25325,-0.37581c-0.20809,-0.30865 -0.36296,-0.49836 -0.46462,-0.56912c-0.22053,-0.15334 -0.66573,-0.3135 -1.3356,-0.48045c-1.42875,-0.35609 -5.59271,-0.96719 -12.4919,-1.83329c-6.94718,-0.87215 -12.38338,-1.42525 -16.30861,-1.65932c-3.93068,-0.23438 -9.77653,-0.35369 -17.53754,-0.35791c-7.4997,-0.00408 -13.00472,0.08371 -16.51506,0.26335c-3.49922,0.17908 -8.24357,0.61522 -14.23305,1.30841c-10.6247,1.22966 -16.32692,2.04731 -17.10666,2.45296c-0.67474,0.35101 -1.09736,0.82379 -1.26787,1.41835c-0.15061,0.52517 -0.22039,10.7011 -0.20931,30.52778c0.01117,19.96924 0.1206,30.81503 0.3283,32.53737c0.72017,5.9728 2.54772,12.2669 5.48264,18.8823c2.94109,6.62937 6.46903,12.39614 10.58381,17.30032c2.23661,2.66575 4.99811,5.40719 8.28452,8.22432c3.28458,2.81539 6.39008,5.10344 9.31649,6.86418c3.949,2.37651 7.97969,4.37621 12.09207,5.99908c1.29721,0.51217 2.2633,0.7557 2.89828,0.73062c0.70107,-0.02749 1.8939,-0.37922 3.57851,-1.0552z" data-paper-data="{&quot;isPathIcon&quot;:true}"></path></g><g data-paper-data="{&quot;isMirroredPrimaryText&quot;:true}" fill-rule="nonzero"><path d="M226.58948,323.45428c2.80776,-4.22477 0.0053,-8.70862 -3.17664,-10.82332c-3.18195,-2.1147 -8.34773,-2.9265 -11.15549,1.29827l-4.19387,6.31042c-2.80776,4.22477 -0.05878,8.67308 3.12317,10.78778c3.18195,2.1147 8.40121,2.96204 11.20897,-1.26273zM218.44637,326.60036c-1.13732,1.7113 -3.02483,1.8832 -4.78961,0.71033c-1.73804,-1.15509 -2.31052,-2.96188 -1.1732,-4.67318l3.69629,-5.56172c1.13732,-1.7113 3.02483,-1.8832 4.76287,-0.72811c1.76478,1.17286 2.33726,2.97965 1.19994,4.69095z" data-paper-data="{&quot;glyphName&quot;:&quot;O&quot;,&quot;glyphIndex&quot;:0,&quot;firstGlyphOfWord&quot;:true,&quot;word&quot;:1}"></path><path d="M254.34924,333.70377c1.45895,-4.85836 -2.52552,-8.33438 -6.18466,-9.4332c-3.65915,-1.09883 -8.83792,-0.3745 -10.29686,4.48386l-2.17919,7.25679c-1.45895,4.85836 2.46402,8.31591 6.12317,9.41474c3.65915,1.09883 8.89941,0.39296 10.35836,-4.4654zM247.47172,339.08036c-0.59097,1.96794 -2.34708,2.6809 -4.37652,2.07147c-1.99869,-0.6002 -3.0715,-2.16267 -2.48053,-4.13062l1.92064,-6.39582c0.59097,-1.96794 2.34708,-2.6809 4.34577,-2.0807c2.02944,0.60943 3.10225,2.17191 2.51128,4.13985z" data-paper-data="{&quot;glyphName&quot;:&quot;O&quot;,&quot;glyphIndex&quot;:1,&quot;word&quot;:1}"></path><path d="M284.76102,328.53488l-4.3339,0.05577c-0.73837,0.0095 -0.96226,0.0766 -1.59524,0.79113l-6.55113,7.40499l-0.09212,-7.15897c-0.0095,-0.73837 -0.36511,-0.92644 -0.91086,-0.91942l-3.1782,0.0409c-0.60996,0.00785 -0.92851,0.2046 -0.91901,0.94297l0.24785,19.26179c0.0095,0.73837 0.33301,0.92686 0.94297,0.91901l3.1782,-0.0409c0.54575,-0.00702 0.8964,-0.20418 0.8869,-0.94255l-0.07353,-5.71433l1.96353,-2.11231c1.77074,2.86696 4.68987,7.64564 4.68987,7.64564c0.42601,0.66879 0.8479,1.01656 1.61837,1.00664l3.91656,-0.0504c0.60996,-0.00785 0.73052,-0.61946 0.46833,-1.03349l-7.04837,-11.27564l7.12238,-7.92607c0.28521,-0.29264 0.27736,-0.9026 -0.3326,-0.89475z" data-paper-data="{&quot;glyphName&quot;:&quot;K&quot;,&quot;glyphIndex&quot;:2,&quot;word&quot;:1}"></path><path d="M310.13244,322.20206l-3.03425,0.94652c-0.55168,0.1721 -0.83146,0.46116 -0.61156,1.16609l3.8817,12.4435c0.60233,1.93089 -0.34074,3.43581 -2.36357,4.06682c-2.02284,0.63102 -3.62364,-0.08035 -4.22597,-2.01124l-3.8817,-12.4435c-0.2199,-0.70493 -0.6144,-0.78365 -1.16609,-0.61156l-3.03425,0.94652c-0.55168,0.1721 -0.83146,0.46116 -0.61156,1.16609l4.09204,13.11778c1.50105,4.8119 6.50925,5.23387 10.15648,4.09613c3.64723,-1.13774 7.5579,-4.34192 6.05685,-9.15381l-4.09204,-13.11778c-0.2199,-0.70493 -0.6144,-0.78365 -1.16609,-0.61156z" data-paper-data="{&quot;glyphName&quot;:&quot;U&quot;,&quot;glyphIndex&quot;:3,&quot;word&quot;:1}"></path><path d="M342.48873,322.62015l-7.65174,5.19107l-8.814,-12.99202c-0.41456,-0.61108 -0.81497,-0.57222 -1.2932,-0.24778l-2.63029,1.78443c-0.47823,0.32444 -0.66234,0.68212 -0.24778,1.2932l10.81473,15.94113c0.32444,0.47823 0.68212,0.66234 1.2932,0.24778l11.05252,-7.49821c0.61108,-0.41456 0.57222,-0.81497 0.24778,-1.2932l-1.47801,-2.17862c-0.32444,-0.47823 -0.68212,-0.66234 -1.2932,-0.24778z" data-paper-data="{&quot;glyphName&quot;:&quot;L&quot;,&quot;glyphIndex&quot;:4,&quot;lastGlyphOfWord&quot;:true,&quot;word&quot;:1}"></path></g><g data-paper-data="{&quot;isContainerElementsWrapper&quot;:true}" fill-rule="evenodd"><path d="M224.77969,116.14762c-15.43632,6.52896 -29.10183,15.74083 -40.99655,27.63561c-11.89478,11.89477 -21.10668,25.5603 -27.6357,40.99659c-6.76502,15.99441 -10.14753,32.73447 -10.14753,50.22018c0,17.48538 3.38251,34.22499 10.14753,50.21964c6.52884,15.43592 15.74074,29.10157 27.6357,40.99695c11.89472,11.89478 25.56023,21.1068 40.99653,27.63606c15.99433,6.7649 32.73441,10.14735 50.22023,10.14735c17.48574,0 34.22607,-3.38215 50.21982,-10.14735c15.43652,-6.52926 29.10217,-15.74128 40.99695,-27.63606c11.89478,-11.89478 21.1068,-25.56043 27.63606,-40.99695c6.7643,-15.99435 10.14645,-32.73423 10.14645,-50.21964h0.0009c0,-17.48574 -3.38215,-34.2258 -10.14735,-50.22018c-6.52926,-15.43628 -15.74128,-29.1018 -27.63606,-40.99659c-11.89478,-11.89478 -25.56043,-21.10665 -40.99695,-27.63561c-15.99417,-6.76508 -32.73411,-10.14762 -50.21982,-10.14762c-17.48577,0 -34.22584,3.38254 -50.22022,10.14762zM285.02662,120.82294l-4.33386,-0.05581c-0.73837,-0.00947 -0.96397,0.05185 -1.61506,0.74983l-6.7395,7.23398l0.09206,-7.15896c0.00956,-0.73837 -0.3411,-0.93548 -0.88688,-0.94251l-3.17819,-0.04094c-0.60998,-0.00784 -0.93349,0.18069 -0.94296,0.91907l-0.24787,19.26175c-0.00947,0.73837 0.30909,0.93512 0.91907,0.94296l3.17819,0.04094c0.54569,0.00694 0.90131,-0.18105 0.91086,-0.91943l0.07349,-5.7144l2.01721,-2.06103c1.69639,2.91157 4.49165,7.76379 4.49165,7.76379c0.40864,0.6795 0.82142,1.038 1.59189,1.04792l3.91657,0.0504c0.60998,0.00784 0.74622,-0.60042 0.49474,-1.02114l-6.75591,-11.45323l7.32396,-7.74017c0.29268,-0.2852 0.30053,-0.89517 -0.30945,-0.90302zM313.24561,127.14416l3.03411,0.94648c0.55182,0.17213 0.83224,0.4612 0.61223,1.16612l-4.09266,13.11771c-1.50037,4.81192 -6.5396,5.22434 -10.18684,4.08662c-3.64724,-1.13772 -7.52729,-4.33232 -6.02619,-9.14425l4.09203,-13.1178c0.21992,-0.70492 0.6144,-0.78364 1.16612,-0.6116l3.0342,0.94657c0.55173,0.17213 0.83152,0.4612 0.6116,1.16612l-3.88167,12.44344c-0.6024,1.93092 0.31008,3.42624 2.33288,4.05732c2.0228,0.63099 3.65427,-0.07087 4.25667,-2.0017l3.88167,-12.44353c0.22001,-0.70492 0.61403,-0.78364 1.16585,-0.61151zM241.95024,125.03534c3.65914,-1.09886 8.89935,-0.39304 10.35834,4.46541l2.17915,7.25679c1.45899,4.85836 -2.52548,8.33437 -6.18462,9.43314c-3.65914,1.09886 -8.83795,0.37455 -10.29694,-4.4838l-2.17915,-7.25679c-1.45899,-4.85836 2.46398,-8.31598 6.12321,-9.41475zM247.01959,141.9166c2.02947,-0.60944 3.10227,-2.17193 2.51123,-4.13991l-1.92064,-6.39579c-0.59095,-1.96798 -2.34704,-2.68092 -4.37651,-2.07149c-1.99863,0.60024 -3.07144,2.16274 -2.48048,4.13062l1.92064,6.39579c0.59095,1.96798 2.34704,2.68092 4.34576,2.08077zM335.40495,157.82136l-7.65154,-5.19107l8.81379,-12.99202c0.41477,-0.61115 0.23083,-0.96884 -0.24796,-1.29326l-2.63016,-1.7844c-0.47788,-0.32442 -0.87822,-0.36328 -1.29299,0.24778l-10.81458,15.94109c-0.3246,0.47824 -0.36337,0.87867 0.24796,1.29326l11.05262,7.49817c0.61043,0.41457 0.96839,0.23046 1.29299,-0.24779l1.47783,-2.17861c0.3246,-0.47824 0.36337,-0.87867 -0.24796,-1.29317zM211.45321,139.37372c3.18194,-2.11477 8.40121,-2.96206 11.20896,1.26269l4.19387,6.3104c2.80774,4.22476 0.0053,8.70865 -3.17665,10.82333c-3.18194,2.11468 -8.34773,2.92654 -11.15548,-1.29822l-4.1939,-6.31049c-2.8077,-4.22476 -0.05879,-8.67303 3.1232,-10.78771zM221.20928,154.05339c1.76478,-1.1728 2.33726,-2.97965 1.19994,-4.69092l-3.69629,-5.56175c-1.13732,-1.71127 -3.02483,-1.88313 -4.78961,-0.71033c-1.73804,1.15512 -2.31052,2.96188 -1.1732,4.67324l3.69629,5.56166c1.13732,1.71136 3.02483,1.88322 4.76287,0.7281zM348.47279,203.97385c4.17021,9.85945 6.25486,20.20147 6.25486,31.02615h0.0009c0,10.82468 -2.08525,21.16694 -6.25576,31.02678c-4.03345,9.53482 -9.73228,17.98463 -17.09649,25.34944c-7.36481,7.36391 -15.81522,13.06334 -25.35025,17.09649c-9.85963,4.17021 -20.20165,6.25576 -31.02615,6.25576c-10.82477,0 -21.16679,-2.08555 -31.02615,-6.25576c-9.53557,-4.03315 -17.98564,-9.73258 -25.35013,-17.09649c-7.36446,-7.36481 -13.06327,-15.81462 -17.09642,-25.34944c-4.17027,-9.8599 -6.2554,-20.20216 -6.2554,-31.02678c0,-10.82462 2.0851,-21.16667 6.25531,-31.02615c4.03321,-9.5356 9.73205,-17.98563 17.09651,-25.35009c7.36443,-7.36445 15.81445,-13.06329 25.35005,-17.0965c9.85948,-4.17019 20.20156,-6.25528 31.02624,-6.25528c10.82462,0 21.16667,2.08509 31.02615,6.25528c9.53536,4.03321 17.98544,9.73204 25.35025,17.0965c7.36421,7.36446 13.06304,15.81449 17.09649,25.35009zM158.57454,284.19354c-6.45623,-15.264 -9.76718,-31.22265 -9.93284,-47.87594h44.00491c0.16293,10.70341 2.31404,20.9485 6.45349,30.73527c4.16666,9.851 10.05338,18.57973 17.66016,26.18618c7.60655,7.60736 16.33554,13.49433 26.18687,17.66093c10.18747,4.30906 20.87176,6.46314 32.05278,6.46314c11.18102,0 21.86531,-2.15408 32.05278,-6.46314c9.85097,-4.1666 18.58,-10.05358 26.18645,-17.66093c7.60706,-7.60645 13.49403,-16.33518 17.66093,-26.18618c4.13925,-9.78704 6.29032,-20.03213 6.45322,-30.73527h44.00401c-0.165,16.65269 -3.47592,32.61164 -9.93185,47.87594c-6.39582,15.12094 -15.41969,28.50767 -27.07162,40.1602c-11.65313,11.65193 -25.03987,20.6758 -40.1602,27.07162c-15.66633,6.62664 -32.06423,9.93997 -49.19372,9.93997c-17.12955,0 -33.52743,-3.31332 -49.19365,-9.93997c-15.12075,-6.39582 -28.50732,-15.41969 -40.15973,-27.07162c-11.65259,-11.65313 -20.67658,-25.03987 -27.07198,-40.1602z" data-paper-data="{&quot;isBaseLogoContainer&quot;:true}"></path></g></g></g></svg>